<?xml version="1.0" encoding="utf-8"?>
<!-- Generator: Adobe Illustrator 26.0.1, SVG Export Plug-In . SVG Version: 6.00 Build 0)  -->
<svg version="1.1" id="Layer_1" xmlns="http://www.w3.org/2000/svg" xmlns:xlink="http://www.w3.org/1999/xlink" x="0px" y="0px"
	 viewBox="0 0 987.21 440.93" style="enable-background:new 0 0 987.21 440.93;" xml:space="preserve">
<style type="text/css">
	.st0{fill:#4D4D4E;}
	.st1{fill:#00AFC7;}
</style>
<g>
	<g>
		<g>
			<path class="st0" d="M52.9,418.11l2.01-1.45c2.53-1.49,4.32-2.24,5.37-2.24c2.31,0,4.81,2.09,7.49,6.26
				c1.64,2.61,2.46,4.7,2.46,6.26c0,1.57-0.5,2.87-1.51,3.91c-1.01,1.04-2.18,1.98-3.52,2.8c-1.34,0.82-2.63,1.6-3.86,2.35
				c-1.23,0.75-3.75,1.72-7.55,2.91c-3.8,1.19-7.48,1.79-11.02,1.79c-3.54,0-7.12-0.47-10.74-1.4c-3.62-0.93-7.34-2.5-11.18-4.7
				c-3.84-2.2-7.29-4.88-10.34-8.05c-3.06-3.17-5.57-7.23-7.55-12.19C0.99,409.41,0,404.02,0,398.21c0-5.82,0.97-11.09,2.91-15.82
				c1.94-4.73,4.42-8.65,7.44-11.74c3.02-3.09,6.47-5.68,10.34-7.77c7.31-4.03,14.65-6.04,22.03-6.04c3.5,0,7.06,0.54,10.68,1.62
				c3.62,1.08,6.35,2.18,8.22,3.3l2.68,1.57c1.34,0.82,2.39,1.49,3.13,2.01c1.94,1.57,2.91,3.34,2.91,5.31
				c0,1.98-0.78,4.05-2.35,6.21c-2.91,4.03-5.52,6.04-7.83,6.04c-1.34,0-3.24-0.82-5.7-2.46c-3.13-2.53-7.31-3.8-12.52-3.8
				c-4.85,0-9.62,1.68-14.31,5.03c-2.24,1.64-4.1,3.95-5.59,6.93c-1.49,2.98-2.24,6.36-2.24,10.12c0,3.77,0.74,7.14,2.24,10.12
				c1.49,2.98,3.39,5.33,5.7,7.05c4.55,3.28,9.28,4.92,14.2,4.92c2.31,0,4.49-0.3,6.54-0.89C50.53,419.31,52,418.71,52.9,418.11z"/>
			<path class="st0" d="M125.02,356.61c11.03,0,20.61,3.99,28.74,11.97c8.13,7.98,12.19,17.88,12.19,29.69
				c0,11.82-3.88,21.88-11.63,30.19c-7.75,8.31-17.3,12.47-28.63,12.47c-11.33,0-20.97-4.1-28.91-12.3
				c-7.94-8.2-11.91-17.97-11.91-29.3c0-6.19,1.12-11.98,3.35-17.39c2.24-5.4,5.22-9.93,8.95-13.59c3.73-3.65,8.01-6.52,12.86-8.61
				C114.88,357.65,119.88,356.61,125.02,356.61z M104.67,398.77c0,6.64,2.14,12.02,6.43,16.16c4.29,4.14,9.08,6.21,14.37,6.21
				c5.29,0,10.06-2.01,14.31-6.04c4.25-4.03,6.37-9.43,6.37-16.22c0-6.78-2.14-12.23-6.43-16.33c-4.29-4.1-9.08-6.15-14.37-6.15
				c-5.29,0-10.06,2.07-14.31,6.21C106.79,386.75,104.67,392.13,104.67,398.77z"/>
			<path class="st0" d="M192.12,357.5l20.69,0.11c10.81,0,20.31,3.9,28.52,11.69c8.2,7.79,12.3,17.37,12.3,28.74
				c0,11.37-4.01,21.12-12.02,29.24c-8.01,8.13-17.72,12.19-29.13,12.19h-20.46c-4.55,0-7.38-0.93-8.5-2.8
				c-0.89-1.57-1.34-3.95-1.34-7.16v-62.18c0-1.79,0.06-3.09,0.17-3.91c0.11-0.82,0.46-1.79,1.06-2.91
				C184.44,358.51,187.35,357.5,192.12,357.5z M227.35,413.7c4.32-3.99,6.49-9,6.49-15.04c0-6.04-2.11-11.09-6.32-15.15
				c-4.21-4.06-9.15-6.09-14.82-6.09h-10.74v42.27h10.85C218.18,419.68,223.02,417.69,227.35,413.7z"/>
			<path class="st0" d="M289.63,419.79h34.44c1.71,0,3,0.06,3.86,0.17c0.86,0.11,1.85,0.47,2.96,1.06c2.01,1.04,3.02,3.95,3.02,8.72
				c0,5.22-1.38,8.28-4.14,9.17c-1.27,0.45-3.21,0.67-5.82,0.67h-44.28c-5.22,0-8.28-1.42-9.17-4.25c-0.45-1.19-0.67-3.09-0.67-5.7
				v-62.18c0-3.8,0.71-6.39,2.12-7.77c1.42-1.38,4.1-2.07,8.05-2.07h44.06c1.71,0,3,0.06,3.86,0.17c0.86,0.11,1.85,0.47,2.96,1.06
				c2.01,1.04,3.02,3.95,3.02,8.72c0,5.22-1.38,8.28-4.14,9.17c-1.27,0.45-3.21,0.67-5.82,0.67h-34.33v11.29h22.14
				c1.71,0,3,0.06,3.86,0.17c0.86,0.11,1.85,0.47,2.96,1.06c2.01,1.04,3.02,3.95,3.02,8.72c0,5.22-1.42,8.28-4.25,9.17
				c-1.27,0.45-3.21,0.67-5.82,0.67h-21.92V419.79z"/>
			<path class="st0" d="M434.67,363.43l30.19,62.4c1.27,2.54,1.9,4.44,1.9,5.7c0,2.68-2.16,5.11-6.49,7.27
				c-2.54,1.27-4.53,1.9-5.98,1.9s-2.65-0.34-3.58-1.01c-0.93-0.67-1.6-1.38-2.01-2.12c-0.41-0.74-0.99-1.86-1.73-3.35l-5.82-12.08
				h-30.98l-5.81,12.08c-0.75,1.49-1.32,2.57-1.73,3.24c-0.41,0.67-1.08,1.36-2.01,2.07c-0.93,0.71-2.12,1.06-3.58,1.06
				c-1.45,0-3.45-0.63-5.98-1.9c-4.32-2.09-6.49-4.47-6.49-7.16c0-1.27,0.63-3.17,1.9-5.7l30.19-62.51
				c0.82-1.71,2.07-3.09,3.75-4.14c1.68-1.04,3.45-1.57,5.31-1.57C429.75,357.61,432.73,359.55,434.67,363.43z M425.61,390.27
				l-7.38,15.32h14.87L425.61,390.27z"/>
			<path class="st0" d="M568.98,360.75c0.6,1.12,0.95,2.12,1.06,3.02c0.11,0.89,0.17,2.2,0.17,3.91v62.07
				c0,5.14-1.42,8.16-4.25,9.06c-1.42,0.45-3.21,0.67-5.37,0.67c-2.16,0-3.88-0.19-5.14-0.56c-1.27-0.37-2.24-0.82-2.91-1.34
				c-0.67-0.52-1.19-1.27-1.57-2.24c-0.37-1.27-0.56-3.2-0.56-5.81v-37.46c-1.86,2.31-4.58,5.98-8.16,11.02
				c-3.58,5.03-5.85,8.18-6.82,9.45c-0.97,1.27-1.64,2.14-2.01,2.63c-0.37,0.49-1.29,1.16-2.74,2.01c-1.45,0.86-3.02,1.29-4.7,1.29
				c-1.68,0-3.21-0.39-4.59-1.17c-1.38-0.78-2.37-1.55-2.96-2.29l-0.89-1.23c-1.49-1.86-4.44-5.83-8.83-11.91
				c-4.4-6.08-6.78-9.34-7.16-9.78v37.69c0,1.72-0.06,3-0.17,3.86c-0.11,0.86-0.47,1.81-1.06,2.85c-1.12,2.01-4.03,3.02-8.72,3.02
				c-4.55,0-7.38-1.01-8.5-3.02c-0.6-1.04-0.95-2.01-1.06-2.91c-0.11-0.89-0.17-2.24-0.17-4.03v-62.07c0-1.71,0.06-3,0.17-3.86
				c0.11-0.86,0.46-1.85,1.06-2.96c1.12-1.94,4.03-2.91,8.72-2.91c2.01,0,3.75,0.24,5.2,0.73c1.45,0.49,2.4,0.99,2.85,1.51
				l0.67,0.67l25.38,33.32c12.67-16.77,21.14-27.85,25.39-33.21c1.27-2.01,4.27-3.02,9-3.02
				C565.05,357.73,567.93,358.73,568.98,360.75z"/>
			<path class="st0" d="M635.4,363.43l30.19,62.4c1.27,2.54,1.9,4.44,1.9,5.7c0,2.68-2.16,5.11-6.49,7.27
				c-2.54,1.27-4.53,1.9-5.98,1.9c-1.45,0-2.65-0.34-3.58-1.01c-0.93-0.67-1.6-1.38-2.01-2.12c-0.41-0.74-0.99-1.86-1.73-3.35
				l-5.82-12.08h-30.98l-5.81,12.08c-0.75,1.49-1.32,2.57-1.73,3.24c-0.41,0.67-1.08,1.36-2.01,2.07c-0.93,0.71-2.12,1.06-3.58,1.06
				c-1.45,0-3.45-0.63-5.98-1.9c-4.32-2.09-6.49-4.47-6.49-7.16c0-1.27,0.63-3.17,1.9-5.7l30.19-62.51
				c0.82-1.71,2.07-3.09,3.75-4.14c1.68-1.04,3.45-1.57,5.31-1.57C630.48,357.61,633.46,359.55,635.4,363.43z M626.35,390.27
				l-7.38,15.32h14.87L626.35,390.27z"/>
			<path class="st0" d="M772.17,419.79h34.44c1.71,0,3,0.06,3.86,0.17c0.86,0.11,1.85,0.47,2.96,1.06c2.01,1.04,3.02,3.95,3.02,8.72
				c0,5.22-1.38,8.28-4.14,9.17c-1.27,0.45-3.21,0.67-5.82,0.67h-44.28c-5.22,0-8.28-1.42-9.17-4.25c-0.45-1.19-0.67-3.09-0.67-5.7
				v-62.18c0-3.8,0.71-6.39,2.12-7.77c1.42-1.38,4.1-2.07,8.05-2.07h44.06c1.71,0,3,0.06,3.86,0.17c0.86,0.11,1.85,0.47,2.96,1.06
				c2.01,1.04,3.02,3.95,3.02,8.72c0,5.22-1.38,8.28-4.14,9.17c-1.27,0.45-3.21,0.67-5.82,0.67h-34.33v11.29h22.14
				c1.71,0,3,0.06,3.86,0.17c0.86,0.11,1.85,0.47,2.96,1.06c2.01,1.04,3.02,3.95,3.02,8.72c0,5.22-1.42,8.28-4.25,9.17
				c-1.27,0.45-3.21,0.67-5.81,0.67h-21.92V419.79z"/>
			<path class="st0" d="M886.23,360.63c0.74-1.19,1.83-2.01,3.24-2.46c1.42-0.45,3.19-0.67,5.31-0.67s3.82,0.19,5.09,0.56
				c1.27,0.37,2.24,0.82,2.91,1.34c0.67,0.52,1.16,1.31,1.45,2.35c0.45,1.27,0.67,3.21,0.67,5.81v33.77
				c0,9.84-3.06,18.79-9.17,26.84c-2.98,3.8-6.82,6.88-11.52,9.23c-4.7,2.35-9.9,3.52-15.6,3.52s-10.89-1.19-15.54-3.58
				c-4.66-2.39-8.44-5.52-11.35-9.39c-6.04-7.9-9.06-16.85-9.06-26.84v-33.66c0-1.79,0.06-3.11,0.17-3.97
				c0.11-0.86,0.46-1.85,1.06-2.96c0.6-1.12,1.6-1.9,3.02-2.35c1.42-0.45,3.32-0.67,5.7-0.67c2.39,0,4.29,0.22,5.7,0.67
				c1.42,0.45,2.38,1.23,2.91,2.35c0.89,1.72,1.34,4.06,1.34,7.05v33.55c0,4.55,1.12,8.87,3.35,12.97c1.12,2.09,2.8,3.77,5.03,5.03
				c2.24,1.27,4.88,1.9,7.94,1.9c5.44,0,9.51-2.01,12.19-6.04c2.68-4.03,4.03-8.68,4.03-13.98v-34.22
				C885.12,363.88,885.49,361.83,886.23,360.63z"/>
			<path class="st0" d="M985.54,425.72c1.12,2.68,1.68,4.62,1.68,5.82c0,2.83-2.31,5.22-6.93,7.16c-2.39,1.04-4.31,1.57-5.76,1.57
				c-1.45,0-2.65-0.35-3.58-1.06c-0.93-0.71-1.62-1.43-2.07-2.18c-0.75-1.42-3.65-8.16-8.72-20.24l-3.47,0.22H942.6v12.64
				c0,1.72-0.06,3-0.17,3.86c-0.11,0.86-0.47,1.85-1.06,2.96c-1.04,2.01-3.95,3.02-8.72,3.02c-5.22,0-8.28-1.38-9.17-4.14
				c-0.45-1.27-0.67-3.2-0.67-5.81v-62.07c0-1.71,0.06-3,0.17-3.86c0.11-0.86,0.46-1.85,1.06-2.96c1.04-2.01,3.95-3.02,8.72-3.02
				h24.16c6.56,0,12.93,2.39,19.12,7.16c2.98,2.31,5.44,5.44,7.38,9.39c1.94,3.95,2.91,8.35,2.91,13.2c0,8.43-2.8,15.36-8.39,20.8
				C979.57,412.11,982.11,417.96,985.54,425.72z M942.6,397.2h14.31c2.16,0,4.32-0.82,6.49-2.46c2.16-1.64,3.24-4.1,3.24-7.38
				c0-3.28-1.08-5.76-3.24-7.44c-2.16-1.68-4.4-2.52-6.71-2.52H942.6V397.2z"/>
		</g>
		<g>
			<g>
				<g>
					<path class="st1" d="M739.61,401.15l-66.99,0.14c-1.79,0.01-3.09-0.18-3.9-0.57c-1.73-0.82-2.6-3.1-2.61-6.82
						c0.04-2.3,0.26-3.87,0.66-4.71c0.4-0.84,0.8-1.43,1.19-1.77c0.4-0.34,0.9-0.6,1.51-0.77c0.72-0.12,1.86-0.21,3.41-0.26
						l66.47-0.09c2.36,0.2,3.96,0.5,4.79,0.9c0.84,0.4,1.42,1.08,1.76,2.04c0.34,0.96,0.49,2.51,0.47,4.65
						c-0.03,2.14-0.3,3.75-0.82,4.83c-0.52,1.08-1.23,1.77-2.13,2.07C742.52,401.07,741.25,401.2,739.61,401.15z"/>
				</g>
			</g>
			<g>
				<g>
					<path class="st1" d="M698.88,432.59l-0.14-66.99c-0.01-1.79,0.18-3.09,0.57-3.9c0.82-1.73,3.1-2.6,6.82-2.61
						c2.3,0.04,3.87,0.26,4.71,0.66c0.84,0.4,1.43,0.8,1.77,1.19c0.34,0.4,0.6,0.9,0.77,1.51c0.12,0.72,0.21,1.86,0.26,3.41
						l0.09,66.47c-0.2,2.36-0.5,3.96-0.9,4.79c-0.4,0.84-1.08,1.42-2.04,1.76c-0.96,0.34-2.51,0.49-4.65,0.47
						c-2.14-0.03-3.75-0.3-4.83-0.82c-1.08-0.52-1.77-1.23-2.07-2.13C698.95,435.49,698.83,434.22,698.88,432.59z"/>
				</g>
			</g>
		</g>
	</g>
	<g>
		<path class="st0" d="M382.14,283.11L84.88,141.55L382.14,0v63.7l-162.79,77.85l162.79,77.85V283.11z"/>
		<path class="st1" d="M610.68,0L453.65,283.11h-56.62L554.06,0H610.68z"/>
		<path class="st0" d="M709.87,283.11h-56.62V0h56.62V283.11z"/>
		<rect x="569.3" y="127.6" class="st0" width="224.51" height="56.62"/>
	</g>
</g>
</svg>
